<svg version="1.2" xmlns="http://www.w3.org/2000/svg" viewBox="0 0 1080 1080" width="1080" height="1080">
	<title>New Project</title>
	<defs>
		<linearGradient id="g1" x2="1" gradientUnits="userSpaceOnUse" gradientTransform="matrix(779.66,0,0,737.378,150.222,170.987)">
			<stop offset="0" stop-color="#ff409a"/>
			<stop offset=".999" stop-color="#0cf0cf"/>
		</linearGradient>
	</defs>
	<style>
		.s0 { fill: url(#g1) } 
	</style>
	<path id="&lt;Compound Path&gt;" fill-rule="evenodd" class="s0" d="m559.3 171l370.6 640.9-660.7 0.4 290.2-503.4 250 432.4-435.2 0.5 185.3-321.4 141.5 244.8-99.2-0.2c-5.1 18.6-22 32.3-42.1 32.3-24.3 0-44-19.7-44-43.9 0-24.2 19.7-43.9 43.9-43.9 20.2 0 37.1 13.7 42.2 32.3l58.9 0.1-101.2-175-145.1 251.6 354.8-0.4-209.8-362.7-250 433.6 580.2-0.3-330.3-571.3-368.9 640 326.2-0.2c3.5-20.8 21.4-36.6 43.1-36.7 24.3 0 44 19.7 44 43.9 0 24.2-19.7 43.9-43.9 44-18.6 0-34.4-11.7-40.8-28l-368.8 0.2zm21.2 693.5c0-11.5-9.3-20.7-20.7-20.7-11.5 0-20.7 9.3-20.7 20.7 0 11.4 9.3 20.7 20.7 20.7 11.4 0 20.7-9.3 20.7-20.7zm-0.2-211.1c0-11.4-9.2-20.7-20.7-20.7-11.4 0-20.6 9.3-20.6 20.7 0 11.5 9.2 20.7 20.7 20.7 11.4 0 20.7-9.2 20.6-20.7z"/>
</svg>